<svg width="24" height="26" viewBox="0 0 24 26" fill="none" xmlns="http://www.w3.org/2000/svg">
<path fill-rule="evenodd" clip-rule="evenodd" d="M5.25 6.375C5.25 2.85418 8.10419 0 11.625 0C15.1458 0 18 2.85418 18 6.375C18 9.89581 15.1458 12.75 11.625 12.75C8.10419 12.75 5.25 9.89581 5.25 6.375ZM11.625 2.25C9.34683 2.25 7.5 4.09683 7.5 6.375C7.5 8.65317 9.34683 10.5 11.625 10.5C13.9032 10.5 15.75 8.65317 15.75 6.375C15.75 4.09683 13.9032 2.25 11.625 2.25Z" fill="#3F6C8F"/>
<path fill-rule="evenodd" clip-rule="evenodd" d="M5.625 17.25C3.76104 17.25 2.25 18.761 2.25 20.625V22.4074C2.25 22.4346 2.26967 22.4577 2.29645 22.4621C8.47459 23.4708 14.7754 23.4708 20.9535 22.4621C20.9803 22.4577 21 22.4346 21 22.4074V20.625C21 18.761 19.489 17.25 17.625 17.25H17.1137C17.0742 17.25 17.0349 17.2563 16.9973 17.2685L15.699 17.6924C13.0518 18.5569 10.1982 18.5569 7.55098 17.6924L6.2527 17.2685C6.21512 17.2563 6.17584 17.25 6.1363 17.25H5.625ZM0 20.625C0 17.5184 2.5184 15 5.625 15H6.1363C6.41304 15 6.68804 15.0438 6.95111 15.1297L8.24938 15.5536C10.4428 16.2698 12.8072 16.2698 15.0006 15.5536L16.2989 15.1297C16.562 15.0438 16.837 15 17.1137 15H17.625C20.7316 15 23.25 17.5184 23.25 20.625V22.4074C23.25 23.5373 22.4312 24.5006 21.3161 24.6827C14.8979 25.7306 8.35215 25.7306 1.93391 24.6827C0.818825 24.5006 0 23.5373 0 22.4074V20.625Z" fill="#3F6C8F"/>
</svg>
